<mxfile host="65bd71144e">
    <diagram id="i4nOi7zlo9NLRjpyxxta" name="Page-1">
        <mxGraphModel dx="1404" dy="314" grid="1" gridSize="10" guides="1" tooltips="1" connect="1" arrows="1" fold="1" page="1" pageScale="1" pageWidth="827" pageHeight="1169" math="0" shadow="0">
            <root>
                <mxCell id="0"/>
                <mxCell id="1" parent="0"/>
                <mxCell id="50" value="" style="group" parent="1" vertex="1" connectable="0">
                    <mxGeometry x="-10" width="450" height="370" as="geometry"/>
                </mxCell>
                <mxCell id="37" value="" style="group" parent="50" vertex="1" connectable="0">
                    <mxGeometry x="264.1304347826087" width="146.7391304347826" height="169.58333333333331" as="geometry"/>
                </mxCell>
                <mxCell id="2" value="FillArray" style="ellipse;whiteSpace=wrap;html=1;" parent="37" vertex="1">
                    <mxGeometry x="9.782608695652174" width="117.3913043478261" height="51.38888888888888" as="geometry"/>
                </mxCell>
                <mxCell id="6" value="" style="edgeStyle=none;html=1;" parent="37" edge="1">
                    <mxGeometry relative="1" as="geometry">
                        <mxPoint x="68.47826086956522" y="138.75" as="sourcePoint"/>
                        <mxPoint x="68.47826086956519" y="169.58333333333331" as="targetPoint"/>
                    </mxGeometry>
                </mxCell>
                <mxCell id="4" value="" style="edgeStyle=none;html=1;" parent="37" source="2" edge="1">
                    <mxGeometry relative="1" as="geometry">
                        <mxPoint x="68.43054082714738" y="77.36363636363636" as="targetPoint"/>
                    </mxGeometry>
                </mxCell>
                <mxCell id="49" value="&lt;span&gt;string[ ] array&lt;/span&gt;&lt;br&gt;&lt;span&gt;string[ ] newArray&lt;br&gt;count = 0&lt;br&gt;&lt;/span&gt;" style="rounded=0;whiteSpace=wrap;html=1;" parent="37" vertex="1">
                    <mxGeometry x="-4.891304347826087" y="82.22222222222221" width="146.7391304347826" height="61.66666666666666" as="geometry"/>
                </mxCell>
                <mxCell id="40" value="for (int i = 0; i &amp;lt; array.Length; i++)" style="shape=hexagon;perimeter=hexagonPerimeter2;whiteSpace=wrap;html=1;fixedSize=1;" parent="50" vertex="1">
                    <mxGeometry x="215.21739130434784" y="174.72222222222217" width="234.7826086956522" height="82.22222222222221" as="geometry"/>
                </mxCell>
                <mxCell id="45" style="edgeStyle=none;html=1;exitX=1;exitY=0.5;exitDx=0;exitDy=0;entryX=1;entryY=0.5;entryDx=0;entryDy=0;" parent="50" source="41" target="40" edge="1">
                    <mxGeometry relative="1" as="geometry">
                        <Array as="points">
                            <mxPoint x="490" y="329"/>
                            <mxPoint x="490" y="216"/>
                        </Array>
                    </mxGeometry>
                </mxCell>
                <mxCell id="41" value="if (array[ i ].Length &amp;lt;= 3" style="rhombus;whiteSpace=wrap;html=1;" parent="50" vertex="1">
                    <mxGeometry x="234.7826086956522" y="287.7777777777777" width="195.65217391304347" height="82.22222222222221" as="geometry"/>
                </mxCell>
                <mxCell id="42" value="" style="edgeStyle=none;html=1;" parent="50" source="40" target="41" edge="1">
                    <mxGeometry relative="1" as="geometry"/>
                </mxCell>
                <mxCell id="43" value="Да" style="text;html=1;align=center;verticalAlign=middle;resizable=0;points=[];autosize=1;strokeColor=none;fillColor=none;" parent="50" vertex="1">
                    <mxGeometry x="210.32608695652175" y="298.0555555555555" width="30" height="20" as="geometry"/>
                </mxCell>
                <mxCell id="44" value="Нет" style="text;html=1;align=center;verticalAlign=middle;resizable=0;points=[];autosize=1;strokeColor=none;fillColor=none;" parent="50" vertex="1">
                    <mxGeometry x="401.0869565217391" y="298.0555555555555" width="40" height="20" as="geometry"/>
                </mxCell>
                <mxCell id="46" value="newArray[count] == array [i]&lt;br&gt;count++" style="whiteSpace=wrap;html=1;" parent="1" vertex="1">
                    <mxGeometry x="197.61" y="410" width="250" height="60.74" as="geometry"/>
                </mxCell>
                <mxCell id="48" style="edgeStyle=none;html=1;entryX=0;entryY=0.5;entryDx=0;entryDy=0;" parent="1" source="46" target="40" edge="1">
                    <mxGeometry relative="1" as="geometry">
                        <Array as="points">
                            <mxPoint x="160" y="450"/>
                            <mxPoint x="160" y="216"/>
                        </Array>
                    </mxGeometry>
                </mxCell>
                <mxCell id="47" value="" style="edgeStyle=none;html=1;" parent="1" source="41" target="46" edge="1">
                    <mxGeometry relative="1" as="geometry"/>
                </mxCell>
            </root>
        </mxGraphModel>
    </diagram>
</mxfile>